<svg width="16" height="16" viewBox="0 0 16 16" fill="none" xmlns="http://www.w3.org/2000/svg">
<path d="M3.36549 7.34287C4.56841 9.70696 6.50646 11.645 8.87055 12.8479L10.7084 11.0101C10.9423 10.7762 11.268 10.7094 11.5604 10.8013C12.496 11.1104 13.4985 11.2774 14.5427 11.2774C14.7642 11.2774 14.9767 11.3655 15.1334 11.5221C15.29 11.6788 15.378 11.8913 15.378 12.1128V15.0366C15.378 15.2581 15.29 15.4706 15.1334 15.6273C14.9767 15.7839 14.7642 15.872 14.5427 15.872C10.7763 15.872 7.16415 14.3758 4.5009 11.7125C1.83766 9.04927 0.341461 5.43714 0.341461 1.67074C0.341461 1.44919 0.429473 1.23671 0.586134 1.08005C0.742796 0.923384 0.955274 0.835373 1.17683 0.835373H4.10061C4.32216 0.835373 4.53464 0.923384 4.6913 1.08005C4.84796 1.23671 4.93597 1.44919 4.93597 1.67074C4.93597 2.71495 5.10305 3.71739 5.41213 4.653C5.50402 4.94537 5.43719 5.27117 5.20329 5.50507L3.36549 7.34287Z" fill="#21232F"/>
</svg>
