<svg width="12" height="17" viewBox="0 0 12 17" fill="none" xmlns="http://www.w3.org/2000/svg">
<path d="M5.95732 7.93598C5.40344 7.93598 4.87224 7.71595 4.48059 7.32429C4.08893 6.93264 3.8689 6.40144 3.8689 5.84756C3.8689 5.29368 4.08893 4.76248 4.48059 4.37083C4.87224 3.97918 5.40344 3.75915 5.95732 3.75915C6.5112 3.75915 7.0424 3.97918 7.43405 4.37083C7.8257 4.76248 8.04573 5.29368 8.04573 5.84756C8.04573 6.12182 7.99171 6.39338 7.88676 6.64676C7.78181 6.90014 7.62798 7.13037 7.43405 7.32429C7.24012 7.51822 7.0099 7.67205 6.75652 7.77701C6.50314 7.88196 6.23157 7.93598 5.95732 7.93598ZM5.95732 0C4.40645 0 2.9191 0.616081 1.82247 1.71271C0.725837 2.80934 0.109756 4.29669 0.109756 5.84756C0.109756 10.2332 5.95732 16.7073 5.95732 16.7073C5.95732 16.7073 11.8049 10.2332 11.8049 5.84756C11.8049 4.29669 11.1888 2.80934 10.0922 1.71271C8.99554 0.616081 7.50819 0 5.95732 0Z" fill="#21232F"/>
</svg>
